<?xml version="1.0" encoding="utf-8"?>
<!-- Generator: Adobe Illustrator 25.0.1, SVG Export Plug-In . SVG Version: 6.00 Build 0)  -->
<svg version="1.1" id="Layer_1" xmlns="http://www.w3.org/2000/svg" xmlns:xlink="http://www.w3.org/1999/xlink" x="0px" y="0px"
	 viewBox="0 0 140 140" style="enable-background:new 0 0 140 140;" xml:space="preserve">
<style type="text/css">
	.st0{fill:#0074AC;}
	.st1{opacity:0.2;fill:#FFFFFF;enable-background:new    ;}
	.st2{fill:#FFFFFF;}
</style>
<g id="Layer_2_1_">
	<g id="Layer_3">
		<g id="geego_icon_games">
			<circle id="Ellipse_37" class="st0" cx="70" cy="70" r="70"/>
			<path id="Path_2078" class="st1" d="M108.5,11.6L31.5,128.4C-0.3,106.4-8.1,62.8,14,31C35.3,0.4,76.9-8.2,108.5,11.6z"/>
			<g id="Group_125">
				<path id="Path_2079" class="st2" d="M59.8,91.8C52.2,89.2,42,92.9,41.5,93c-0.4,0.2-0.6,0.5-0.7,0.8c-0.1,0.3,0,0.7,0.2,1
					c0.2,0.3,6.4,7.5,14.9,8.3c0.8,0.1,1.6,0.2,2.3,0.2c6.9,0,10.2-3.1,10.4-3.3c0.3-0.3,0.4-0.7,0.3-1.1
					C68.9,98.8,67.5,94.4,59.8,91.8z M56.1,100.9c-5.4-0.5-10-4.2-12.1-6.3c3.1-0.9,9.9-2.5,15-0.8c4.8,1.6,6.6,3.9,7.3,5
					C65.1,99.8,61.8,101.5,56.1,100.9L56.1,100.9z"/>
				<path id="Path_2080" class="st2" d="M53.4,74c-0.3,0.1-0.6,0.4-0.8,0.7c-0.9,2.4-1.7,4.8-2.2,7.3c-0.2,2.2,0.5,4.3,1.7,6.1
					c0.4,0.5,1.1,0.6,1.7,0.2c0.5-0.4,0.6-1.1,0.3-1.6c0,0-1.6-2.4-1.3-4.4c0.4-1.9,0.9-3.8,1.6-5.6c2.2,1.5,5.4,4.2,5.8,6.5
					c0.4,1.8,0.1,3.8-0.8,5.4c-0.4,0.5-0.2,1.3,0.3,1.7c0,0,0,0,0,0c0.5,0.4,1.2,0.2,1.6-0.3c0,0,0,0,0,0c1.2-2.1,1.6-4.6,1.1-7.1
					c-0.8-4.2-7.4-8.4-8.1-8.9C54.1,73.9,53.7,73.9,53.4,74z"/>
				<path id="Path_2081" class="st2" d="M47.8,89.4c0.6-0.1,1.1-0.6,1-1.3c0-0.6-0.6-1-1.2-1c0,0,0,0,0,0l0,0
					c-0.1,0-4.8,0.6-8.3-1.8c-2.5-1.8-3.8-5.4-4.3-7.3c2.1-0.3,4.3-0.3,6.4,0c2.2,0.4,4.1,1.8,5.2,3.8c0.3,0.6,1,0.9,1.6,0.6
					c0.6-0.3,0.9-1,0.6-1.6l0,0c-1.4-2.7-3.9-4.6-6.8-5.2c-3.1-0.6-8.3,0.2-8.6,0.2c-0.3,0.1-0.6,0.2-0.7,0.4
					c-0.2,0.3-0.2,0.6-0.2,0.9c0.1,0.3,1.2,6.9,5.5,10c2.4,1.6,5.3,2.4,8.1,2.3C46.6,89.5,47.2,89.5,47.8,89.4z"/>
				<path id="Path_2082" class="st2" d="M49.7,57.2c-0.3,0-0.6,0.1-0.8,0.3c-0.2,0.2-5,4.9-5.1,10.1c-0.2,5.4,4.5,8.1,4.7,8.3
					c0.2,0.1,0.4,0.1,0.6,0.2c0.4,0,0.8-0.2,1-0.6c0.3-0.5,0.1-1.2-0.4-1.6l0,0c-0.2-0.1-3.7-2.2-3.6-6.2c0.2-3.1,2.4-6.1,3.7-7.6
					c1.3,1.6,2.3,3.4,2.8,5.4c0.6,3-0.5,4.6-0.6,4.6c-0.4,0.5-0.3,1.2,0.2,1.6s1.2,0.3,1.6-0.2l0,0c0.1-0.1,1.8-2.4,1-6.4
					s-4.1-7.5-4.2-7.6C50.3,57.4,50,57.3,49.7,57.2z"/>
				<path id="Path_2083" class="st2" d="M41.7,73.5L41.7,73.5c0.7,0,1.2-0.5,1.2-1.2c0,0,0,0,0,0c0-0.6-0.5-1.1-1.2-1.1c0,0,0,0,0,0
					c-0.2,0-3,0-6.1-3.4C33.2,65.1,33,60.2,33,58c1.5,0.2,3,0.6,4.3,1.3c1.6,0.7,2.9,2,3.6,3.6c0.1,0.6,0.8,1,1.4,0.9
					c0.6-0.1,1-0.8,0.9-1.4c0,0,0,0,0-0.1l0,0c0-0.2-0.8-3-4.8-5.1c-2-0.9-4.2-1.4-6.4-1.6c-0.3,0-0.6,0.1-0.9,0.2
					c-0.2,0.2-0.4,0.5-0.5,0.8c0,0.4-0.7,8.4,3.1,12.8C37.4,73.4,41,73.5,41.7,73.5z"/>
				<path id="Path_2084" class="st2" d="M40.9,55.1c0.5-0.3,0.8-1,0.5-1.5c0,0,0,0,0,0l0,0c-0.9-1.9-0.7-4.1,0.4-5.8
					c1.6-2.3,3.5-4.4,5.6-6.3c1.2,2.7,2.8,7.2,1.3,9.4c-1.2,1.9-3,3.5-5.1,4.5c-0.6,0.2-0.9,0.9-0.7,1.5c0,0,0,0,0,0
					c0.2,0.5,0.6,0.8,1.1,0.8c0.1,0,0.3,0,0.4-0.1c2.6-1.1,4.7-3,6.2-5.4c2.6-4.2-1.4-12.1-1.9-13c-0.2-0.5-0.8-0.7-1.3-0.6
					c-1,0.2-6,5.4-7.7,8c-1.5,2.5-1.7,5.5-0.5,8.1C39.7,55.1,40.4,55.4,40.9,55.1z"/>
				<path id="Path_2085" class="st2" d="M97.7,93.1C97.2,93,87,89.3,79.4,91.8c-7.8,2.6-9.1,7-9.1,7.2c-0.1,0.4,0,0.8,0.3,1.1
					c0.2,0.2,3.4,3.3,10.4,3.3c0.8,0,1.5,0,2.3-0.2c8.5-0.8,14.6-8,14.9-8.3c0.2-0.3,0.3-0.7,0.2-1C98.4,93.6,98.1,93.2,97.7,93.1z
					 M83.1,100.9c-5.7,0.5-9-1.1-10.2-2c0.7-1.1,2.5-3.3,7.3-5c5.1-1.7,11.8-0.2,15,0.7C93.1,96.7,88.5,100.4,83.1,100.9L83.1,100.9
					z"/>
				<path id="Path_2086" class="st2" d="M78.8,90.6c0.2,0,0.5-0.1,0.7-0.2c0.5-0.3,0.7-1,0.3-1.5l0,0c-0.9-1.7-1.2-3.6-0.8-5.5
					c0.4-2.2,3.7-5,5.8-6.5c0.7,1.8,1.2,3.7,1.6,5.6c0,1.6-0.4,3.1-1.3,4.4c-0.3,0.6-0.2,1.3,0.4,1.6c0.5,0.3,1.2,0.2,1.6-0.3
					c0.1-0.2,2.2-3.1,1.7-6.1c-0.6-2.5-1.3-5-2.2-7.4c-0.1-0.3-0.3-0.6-0.6-0.7c-0.3-0.1-0.7-0.1-1,0.1c-0.8,0.4-7.4,4.6-8.1,8.9
					c-0.5,2.4-0.1,5,1.1,7.1C78.1,90.4,78.5,90.6,78.8,90.6z"/>
				<path id="Path_2087" class="st2" d="M105.9,75.9c-0.2,0-5.4-0.8-8.6-0.2c-3,0.5-5.5,2.4-6.8,5.1c-0.3,0.6,0,1.3,0.5,1.6
					c0,0,0,0,0,0c0.6,0.3,1.3,0,1.6-0.6l0,0c1.1-2,3-3.4,5.2-3.8c2.2-0.2,4.3-0.2,6.5,0.1c-0.5,1.9-1.7,5.4-4.3,7.3
					c-3.4,2.4-8.2,1.8-8.3,1.8c-0.6,0-1.1,0.5-1.2,1.1c0,0.5,0.3,1,0.9,1.1l0,0c0.1,0,0.8,0.1,1.8,0.1c2.9,0.1,5.7-0.8,8.1-2.3
					c4.3-3.1,5.4-9.7,5.5-10c0.1-0.3,0-0.7-0.2-0.9C106.4,76.1,106.1,76,105.9,75.9z"/>
				<path id="Path_2088" class="st2" d="M87.1,71.9c0.5-0.4,0.6-1.1,0.2-1.6c-0.1-0.1-1.2-1.6-0.6-4.6c0.5-2,1.5-3.9,2.8-5.5
					c1.3,1.5,3.5,4.5,3.7,7.6c0.2,3.9-3.4,6.1-3.6,6.2c-0.5,0.3-0.7,1-0.4,1.6c0.2,0.4,0.6,0.6,1,0.6c0.2,0,0.4-0.1,0.6-0.2
					c0.2-0.2,4.9-2.9,4.7-8.3c-0.2-5.2-5-9.8-5.2-10.1c-0.2-0.2-0.5-0.3-0.8-0.3c-0.3,0-0.6,0.2-0.8,0.4c-0.2,0.2-3.5,3.7-4.2,7.6
					s1,6.3,1,6.4C85.8,72.1,86.6,72.3,87.1,71.9z"/>
				<path id="Path_2089" class="st2" d="M96.1,62.2c-0.1,0.6,0.2,1.2,0.9,1.4c0.6,0.1,1.2-0.2,1.4-0.8l0,0c0-0.1,0.7-2.1,3.6-3.6
					c1.4-0.6,2.8-1,4.3-1.3c0,2.2-0.2,7.1-2.6,9.8c-3.1,3.4-6,3.4-6,3.4c-0.6,0-1.2,0.5-1.2,1.1c0,0.6,0.4,1.1,1,1.2h0.2
					c0.6,0,4.2-0.2,7.8-4.2c3.8-4.3,3.2-12.4,3.1-12.8c0-0.3-0.2-0.6-0.4-0.8c-0.2-0.2-0.6-0.3-0.9-0.2c-2.2,0.2-4.4,0.8-6.4,1.6
					C98.6,58.2,96.9,60,96.1,62.2z"/>
				<path id="Path_2090" class="st2" d="M94.7,57.3c0.1,0.1,0.2,0.1,0.4,0.1c0.5,0,0.9-0.3,1.1-0.7c0.2-0.6-0.1-1.3-0.7-1.5
					c-2.1-1-3.9-2.5-5.1-4.5c-1.3-2.2,0.2-6.7,1.3-9.4c2.1,1.9,4,4,5.6,6.3c1.1,1.7,1.3,3.9,0.4,5.8c-0.3,0.6,0,1.3,0.6,1.5
					c0.5,0.2,1.1,0.1,1.4-0.4c1.2-2.6,1.1-5.7-0.4-8.1c-1.6-2.7-6.6-7.8-7.7-8c-0.5-0.1-1,0.1-1.3,0.6c-0.4,0.9-4.5,8.9-1.9,13
					C89.9,54.4,92.1,56.3,94.7,57.3z"/>
			</g>
		</g>
	</g>
</g>
</svg>
