<svg xmlns="http://www.w3.org/2000/svg" viewBox="0 0 140 140"><defs><style>.cls-1{fill:#6b377c;}.cls-2,.cls-3{fill:#fff;}.cls-2{opacity:0.18;isolation:isolate;}</style></defs><g id="Layer_2" data-name="Layer 2"><g id="Layer_3" data-name="Layer 3"><g id="geego_icon_challenge_1_2" data-name="geego icon challenge 1 2"><circle id="Ellipse_36-2" data-name="Ellipse 36-2" class="cls-1" cx="70" cy="70" r="70"/><path id="Path_2076-2" data-name="Path 2076-2" class="cls-2" d="M108.75,11.63,31.52,128.43a70,70,0,1,1,77.23-116.8Z"/><g id="Group_124-2" data-name="Group 124-2"><path id="Path_2077-2" data-name="Path 2077-2" class="cls-3" d="M106.46,98.25,94.13,79.13a1.13,1.13,0,0,0-.9-.52,1.23,1.23,0,0,0-1,.37L89.8,81.6,71,49.18V42.76h17A1.15,1.15,0,0,0,89,42a1.3,1.3,0,0,0-.22-1.27l-4.19-4.18,4.63-4.63a1.21,1.21,0,0,0-.08-1.71,1.24,1.24,0,0,0-.74-.31H69.78a1.17,1.17,0,0,0-1.19,1.16,0,0,0,0,0,0,0V49.18L60.37,64.49,57,59.71a1.2,1.2,0,0,0-1-.45,1.26,1.26,0,0,0-1,.53L29.82,98.33a1.37,1.37,0,0,0-.07,1.2,1.2,1.2,0,0,0,1.05.6h74.68a1.2,1.2,0,0,0,1-.6A1.51,1.51,0,0,0,106.46,98.25ZM71,32.23H85.62l-3.51,3.51a1.16,1.16,0,0,0,0,1.64l3.06,3.06H71ZM59.7,67.33a1.08,1.08,0,0,0,1,.45,1.2,1.2,0,0,0,1-.6l6.87-12.77L72.7,79.28a1.3,1.3,0,0,0,.74.9A1.18,1.18,0,0,0,74.56,80l3-2.46,3.73,20.16H33L56.12,62.4Zm23.9,30.4L79.42,75.17a1.31,1.31,0,0,0-.75-.9,1.06,1.06,0,0,0-1.12.23l-3,2.39-4-23.82,17.93,31a1.27,1.27,0,0,0,.9.59,1,1,0,0,0,1-.37l2.54-2.69,10.38,16.14H83.6Z"/></g></g></g></g></svg>