<?xml version="1.0" encoding="utf-8"?>
<!-- Generator: Adobe Illustrator 25.0.1, SVG Export Plug-In . SVG Version: 6.00 Build 0)  -->
<svg version="1.1" id="Layer_1" xmlns="http://www.w3.org/2000/svg" xmlns:xlink="http://www.w3.org/1999/xlink" x="0px" y="0px"
	 viewBox="0 0 140.2 140" style="enable-background:new 0 0 140.2 140;" xml:space="preserve">
<style type="text/css">
	.st0{fill:#EB6A39;}
	.st1{opacity:0.16;fill:#FFFFFF;enable-background:new    ;}
	.st2{fill:#FFFFFF;}
</style>
<g id="Layer_2_1_">
	<g id="Layer_3">
		<g id="geego_icon_knowhowto">
			<circle id="Ellipse_31" class="st0" cx="70.2" cy="70" r="70"/>
			<path id="Path_2044" class="st1" d="M108.3,11.6L31.5,128.5c-32.3-21.2-41.2-64.6-20-96.8S76.1-9.6,108.3,11.6z"/>
		</g>
	</g>
</g>
<g id="Group_112">
	<path id="Path_2050" class="st2" d="M41.9,49.5c0.3-0.2,0.6-0.4,0.8-0.6C42.5,49.1,42.2,49.3,41.9,49.5z"/>
	<path id="Path_2051" class="st2" d="M43,48.8c0.2-0.2,0.5-0.2,0.7-0.4C43.5,48.6,43.3,48.7,43,48.8z"/>
	<path id="Path_2052" class="st2" d="M44.9,48c0.3-0.1,0.5-0.2,0.8-0.2C45.5,47.8,45.2,47.9,44.9,48z"/>
	<path id="Path_2053" class="st2" d="M46,47.7c0.2-0.1,0.5-0.1,0.7-0.2C46.5,47.6,46.3,47.6,46,47.7z"/>
	<path id="Path_2054" class="st2" d="M97,48.9c0.3,0.2,0.6,0.4,0.8,0.6C97.6,49.3,97.3,49.1,97,48.9z"/>
	<path id="Path_2055" class="st2" d="M96.1,48.5c0.2,0.1,0.5,0.2,0.7,0.4C96.6,48.7,96.4,48.6,96.1,48.5z"/>
	<path id="Path_2056" class="st2" d="M103.3,58.5c-0.1-0.4-0.2-0.8-0.3-1.2c-0.2-0.8-0.5-1.6-0.8-2.3c0.3,0.7,0.6,1.5,0.8,2.3
		C103.1,57.7,103.2,58,103.3,58.5z"/>
	<path id="Path_2057" class="st2" d="M92.9,47.5c-0.3,0-0.6-0.1-0.9-0.1l0,0C92.3,47.5,92.6,47.5,92.9,47.5z"/>
	<path id="Path_2059" class="st2" d="M43.9,48.3c0.3-0.2,0.6-0.2,0.9-0.4C44.5,48.1,44.2,48.2,43.9,48.3z"/>
	<path id="Path_2060" class="st2" d="M93.2,47.6c0.2,0,0.5,0.1,0.7,0.2C93.6,47.6,93.4,47.6,93.2,47.6z"/>
	<path id="Path_2061" class="st2" d="M94.1,47.7c0.3,0.1,0.5,0.2,0.8,0.2C94.7,47.9,94.4,47.8,94.1,47.7z"/>
	<path id="Path_2062" class="st2" d="M95,48c0.3,0.1,0.6,0.2,0.9,0.4C95.6,48.2,95.3,48.1,95,48z"/>
	<path id="Path_2063" class="st2" d="M47.8,47.5c-0.3,0-0.6,0-0.9,0.1C47.2,47.5,47.5,47.5,47.8,47.5z"/>
	<path id="Path_2064" class="st2" d="M107.5,72.1c-0.1-0.4-0.2-0.7-0.3-1.2c-0.3-0.9-0.7-1.8-1.3-2.6c-0.2-0.2-0.3-0.4-0.4-0.6
		c-0.2-0.3-0.5-0.5-0.8-0.7c1.4-3.3,1.6-6.9,0.7-10.3c-0.9-3.6-3-6.8-6-9c-2.1-1.6-4.6-2.4-7.2-2.5c-0.7,0-1.4,0.1-2.1,0.2l-0.5-0.2
		c-0.5-0.2-1.1-0.4-1.7-0.4c-0.5-0.1-0.9-0.2-1.4-0.2h-1.8c-0.8,0.1-1.6,0.3-2.3,0.6c-0.2,0.1-0.3,0.1-0.5,0.2l0,0
		c-0.2,0.1-0.5,0.2-0.8,0.2s-0.7,0.2-1,0.2c-1.3,0.1-2.7,0.2-4.1,0.2H75L70.1,46L65,45.9h-0.8c-1.4-0.1-2.8-0.1-4.1-0.2
		c-0.3,0-0.7-0.1-1-0.2c-0.3-0.1-0.5-0.2-0.8-0.2l0,0c-0.2-0.1-0.3-0.1-0.5-0.2c-0.8-0.3-1.5-0.5-2.3-0.6h-1.8c-0.5,0-1,0.1-1.5,0.2
		c-0.6,0.1-1.1,0.2-1.7,0.5L50,45.3c-0.7-0.1-1.4-0.2-2.1-0.2c-2.6,0.1-5.1,0.9-7.2,2.5c-3,2.2-5.1,5.4-6,9c-0.9,3.4-0.7,7,0.7,10.3
		c-0.3,0.2-0.5,0.5-0.7,0.7c-0.2,0.2-0.3,0.4-0.5,0.6c-0.5,0.8-1,1.7-1.3,2.6c-0.1,0.4-0.2,0.8-0.3,1.2c-0.4,2-0.4,4,0,6
		c0.2,0.6,0.3,1.1,0.5,1.6c0.1,0.2,0.2,0.4,0.3,0.6v0.1c0.1,0.3,0.3,0.7,0.5,1c0.1,0.2,0.2,0.3,0.3,0.4c0.4,0.5,0.7,1,1,1.4
		c0.5,0.5,1,1,1.5,1.4c0.3,0.3,0.6,0.5,0.9,0.7c0.3,0.1,0.5,0.3,0.7,0.5c0.6,0.3,1.1,0.6,1.7,0.9H40c0.6,0.3,1.3,0.5,1.9,0.6
		c0.8,0.2,1.5,0.3,2.3,0.4c0.4,0.1,0.8,0.1,1.1,0.2c0.9,0.2,1.8,0.4,2.6,0.7c0.8,0.3,1.7,0.8,2.8,1.3c1.7,0.8,3.4,1.8,5.5,3
		c1,0.5,1.9,1.1,3,1.6c1.2,0.6,2.4,1.1,3.7,1.3c1.2,0.3,2.5,0.4,3.7,0.4l3.3,0.1h0.3l3.3-0.1c1.3,0,2.6-0.2,3.8-0.4
		c1.3-0.3,2.5-0.7,3.7-1.3c1-0.5,2.1-1.1,3-1.6c2.1-1.2,3.9-2.2,5.5-3c0.9-0.5,1.8-0.8,2.8-1.2c0.8-0.3,1.7-0.6,2.6-0.8
		c0.4-0.1,0.8-0.1,1.1-0.2c0.8-0.1,1.6-0.2,2.3-0.4c0.7-0.2,1.3-0.4,1.9-0.7h0.1c0.6-0.3,1.2-0.6,1.7-0.9c0.3-0.2,0.5-0.3,0.8-0.5
		c0.2-0.2,0.5-0.4,0.8-0.6c0.6-0.4,1.1-0.9,1.6-1.4c0.4-0.4,0.7-0.9,1-1.4c0.1-0.2,0.2-0.3,0.3-0.4c0.2-0.3,0.4-0.7,0.5-1v-0.1
		c0.1-0.2,0.2-0.4,0.3-0.6l0.4-1.6C108,76.1,107.8,74.1,107.5,72.1z M92.9,47.5h0.2c0.2,0,0.5,0.1,0.7,0.2c0.1,0,0.2,0,0.3,0.1
		c0.3,0.1,0.5,0.2,0.8,0.2H95c0.3,0.1,0.6,0.2,0.9,0.4c0.1,0.1,0.2,0.1,0.2,0.2c0.2,0.1,0.5,0.2,0.7,0.4c0.1,0.1,0.2,0.1,0.2,0.2
		c0.3,0.2,0.6,0.4,0.8,0.6c1.9,1.4,3.4,3.3,4.3,5.5c0.3,0.8,0.6,1.5,0.8,2.3c0.1,0.4,0.2,0.8,0.3,1.2c0.5,2.7,0.2,5.5-1,8
		c-0.2,0.5-0.5,0.9-0.8,1.3l0,0c-0.5,0.7-1.1,1.4-1.7,2c-0.2,0.2-0.4,0.4-0.7,0.5c-0.4,0.3-1,0.6-1.4,0.9c-0.2,0.1-0.5,0.2-0.7,0.3
		c-0.3,0.1-0.5,0.2-0.8,0.2l-1,0.2c-0.2,0-0.5,0-0.7,0.1c2.7-2.5,3.9-6.9,2.8-11.7c-0.6-2.8-2-5.3-4-7.2c-1.5-1.4-3.5-2.3-5.5-2.3
		l0,0c-0.6,0-1.1,0.1-1.6,0.2c-0.5,0.1-1,0.3-1.4,0.5c0.1-0.2,0.2-0.3,0.3-0.5c0.3-0.4,0.6-0.7,0.9-1c0.8-0.8,1.7-1.5,2.8-1.9
		l0.7-0.2c0.2-0.1,0.4-0.1,0.5-0.2c0.3-0.1,0.7-0.1,1-0.1h0.4c0.2,0,0.4-0.1,0.7-0.1l0,0C92.2,47.5,92.5,47.5,92.9,47.5z M84.7,67
		c-0.6-0.9-1.1-1.9-1.5-2.9c-0.4-1-0.6-2.1-0.7-3.2c-0.1-1.1,0-2.3,0.2-3.4c0-0.1,0-0.2,0.1-0.3v-0.1l0.1-0.1l0.1-0.3l0.1-0.2
		c0.2-0.4,0.5-0.8,0.8-1.2c0.4-0.5,0.8-1,1.3-1.4c0.5-0.4,1-0.6,1.6-0.8c0.4-0.1,0.7-0.1,1.1-0.2c1.5,0,2.9,0.7,4,1.7l0,0
		c0.2,0.2,0.4,0.4,0.6,0.6c1.4,1.5,2.3,3.4,2.8,5.5c0.3,1.6,0.4,3.3,0.1,5c-0.1,0.7-0.4,1.5-0.7,2.2c-0.6,1.5-1.7,2.7-3.2,3.3
		l-0.1,0.1h-0.1L91,71.4l0,0c-1.5-0.4-2.8-1-4-2C86.1,68.7,85.3,67.9,84.7,67z M36.4,62c-0.1-1.6,0-3.2,0.4-4.7
		c0.8-3.1,2.6-5.9,5.2-7.8c0.3-0.2,0.6-0.4,0.8-0.6c0.1-0.1,0.2-0.1,0.2-0.2c0.2-0.2,0.5-0.2,0.7-0.4c0.1-0.1,0.2-0.1,0.2-0.2
		c0.3-0.2,0.6-0.2,0.9-0.4h0.1c0.3-0.1,0.5-0.2,0.8-0.2c0.1,0,0.2-0.1,0.3-0.1s0.5-0.1,0.7-0.2h0.2c0.3,0,0.6-0.1,0.9-0.1l0,0
		c0.2,0,0.5,0,0.7,0.1h0.4c0.4,0.1,0.7,0.1,1,0.2c0.2,0.1,0.4,0.1,0.5,0.1c1.3,0.4,2.5,1.1,3.5,2.1c0.3,0.3,0.6,0.6,0.9,1
		c0.1,0.1,0.2,0.3,0.3,0.4c-0.4-0.2-0.8-0.4-1.3-0.4c-0.5-0.2-1.1-0.2-1.6-0.2c-2.1,0.1-4,0.9-5.5,2.3c-2.1,1.9-3.4,4.5-4,7.2
		c-1,4.7,0.2,9.2,2.8,11.7c-0.3,0-0.6,0-0.8-0.1c-0.3,0-0.7-0.1-1-0.2c-0.6-0.1-1.1-0.3-1.6-0.6c-1.6-0.8-2.9-2-3.8-3.4l0,0
		c-0.2-0.4-0.5-0.8-0.8-1.3C36.8,64.9,36.4,63.4,36.4,62L36.4,62z M49,71.4L49,71.4l-0.2-0.1h-0.1l-0.2-0.1c-0.6-0.2-1.1-0.6-1.6-1
		c-0.3-0.3-0.6-0.6-0.8-1C46,69,46,68.9,45.8,68.7c-0.3-0.4-0.5-0.9-0.6-1.4c-0.1-0.2-0.2-0.4-0.2-0.8c-0.1-0.5-0.3-1-0.3-1.6
		c-0.2-1.4-0.1-2.8,0.2-4.2c0.5-2.3,1.6-4.4,3.4-6c0.2-0.2,0.3-0.2,0.4-0.3l0,0c1-0.9,2.3-1.4,3.7-1.4c0.4,0,0.8,0.1,1.1,0.2
		c0.8,0.2,1.5,0.5,2.1,1.1c0.6,0.6,1.2,1.4,1.6,2.2l0.1,0.2l0.1,0.3l0.1,0.1V57c0,0.1,0,0.2,0.1,0.3C58.3,63.4,55.1,69.7,49,71.4
		L49,71.4z M105.3,77.6c-0.1,0.4-0.2,0.9-0.4,1.3c-0.1,0.2-0.1,0.4-0.2,0.5c-0.1,0.2-0.2,0.5-0.4,0.8s-0.2,0.2-0.2,0.4
		c-0.2,0.4-0.5,0.8-0.8,1.1c-0.4,0.4-0.8,0.8-1.2,1.1l-0.6,0.4l-0.7,0.4c-0.5,0.3-1,0.5-1.5,0.8c-0.5,0.2-1,0.4-1.6,0.5
		c-1.1,0.2-2.2,0.3-3.3,0.4c-1.1,0.2-2.1,0.5-3.1,0.9c-1,0.4-2,0.8-3,1.3c-1.9,1-3.8,1.9-5.7,3.1c-1,0.5-1.9,1-2.8,1.6
		c-1,0.5-2.1,0.9-3.1,1.1c-1.1,0.2-2.2,0.3-3.3,0.3l-3.3,0.1H70l-3.3-0.1c-1.1,0-2.2-0.1-3.3-0.3c-1.1-0.2-2.2-0.6-3.2-1.1
		c-1-0.4-1.9-1-2.8-1.6c-1.9-1-3.7-2.1-5.7-3.1c-1-0.4-2-0.9-3-1.3c-1-0.4-2-0.7-3.1-0.9c-1-0.2-2.2-0.2-3.3-0.4
		c-0.5-0.1-1.1-0.3-1.6-0.5c-0.5-0.2-1-0.5-1.5-0.8l-0.7-0.5L38,82.8c-0.4-0.4-0.8-0.7-1.2-1.1c-0.3-0.4-0.6-0.7-0.8-1.1
		c-0.1-0.2-0.2-0.2-0.2-0.4c-0.2-0.3-0.3-0.5-0.4-0.8c-0.1-0.2-0.2-0.4-0.2-0.5c-0.2-0.4-0.3-0.8-0.4-1.3c-0.4-1.6-0.4-3.4,0-5
		c0.1-0.3,0.1-0.6,0.2-1c0.3-0.7,0.6-1.4,1-2c0.1-0.2,0.2-0.3,0.3-0.4l0.2-0.2c1.5,2.4,3.9,4.2,6.7,4.9c0.9,0.2,1.7,0.3,2.6,0.3
		c0.9,0,1.8-0.1,2.7-0.3l0.2-0.1l0,0l0.9-0.2h0.1c7-1.9,11.3-9,9.9-16.5V57c0-0.1,0-0.2-0.1-0.3l-0.1-0.2v-0.2
		c-0.4-3.8-2.5-7.3-5.8-9.4h0.2c0.3,0,0.6-0.1,0.9-0.1h0.5c0.8,0.1,1.7,0.4,2.5,0.7c0.3,0.1,0.6,0.2,1,0.3c0.5,0.1,0.9,0.2,1.4,0.2
		c1.4,0.1,2.8,0.2,4.2,0.2h0.8l5,0.2l5-0.2h0.8c1.4-0.1,2.8-0.1,4.2-0.2c0.4-0.1,1-0.1,1.4-0.2c0.3-0.1,0.7-0.2,1-0.3
		c0.8-0.3,1.6-0.5,2.5-0.7h0.4c0.3,0,0.6,0,0.9,0.1h0.1c-3.2,2.1-5.4,5.6-5.8,9.4v0.8l0,0v0.1c-1.3,7.5,3,14.6,9.9,16.5h0.1l0.1,0.1
		c0.2,0.1,0.2,0.1,0.4,0.2l0.5,0.2c0.9,0.2,1.8,0.3,2.7,0.3c0.9,0,1.8-0.1,2.6-0.3c2.8-0.7,5.2-2.4,6.7-4.8l0.1,0.2
		c0.1,0.1,0.2,0.3,0.3,0.4c0.5,0.6,0.8,1.3,1,2c0.1,0.3,0.2,0.7,0.2,1C105.6,74.4,105.6,76,105.3,77.6L105.3,77.6z"/>
	<path id="Path_2065" class="st2" d="M74.1,70.3c0.2,0.1,0.4,0.2,0.7,0.2c0.2,0,0.4-0.1,0.5-0.2c0.3-0.2,0.6-0.4,0.9-0.7l0.7-0.7
		c0.4-0.5,0.7-1,1-1.6c0.2-0.4,0.1-0.9-0.1-1.2c-0.3-0.4-0.7-0.5-1.1-0.4c-0.4,0.1-0.9,0.2-1.2,0.5c-0.3,0.2-0.6,0.5-0.8,0.8
		c-0.2,0.3-0.4,0.6-0.6,0.9c-0.2,0.4-0.3,0.8-0.4,1.2C73.5,69.5,73.7,70,74.1,70.3z"/>
	<path id="Path_2066" class="st2" d="M63,69l0.7,0.7c0.3,0.3,0.6,0.5,0.9,0.6c0.2,0.1,0.3,0.1,0.5,0.2c0.7,0,1.2-0.6,1.2-1.3l0,0
		c-0.1-0.4-0.2-0.8-0.4-1.2c-0.2-0.3-0.4-0.6-0.6-0.9c-0.2-0.3-0.5-0.5-0.8-0.8c-0.3-0.3-0.8-0.5-1.2-0.5c-0.4-0.1-0.9,0.1-1.1,0.4
		c-0.3,0.3-0.3,0.8-0.2,1.2C62.3,68,62.6,68.5,63,69z"/>
	<path id="Path_2067" class="st2" d="M96.4,78.1c-0.3-0.4-0.6-0.7-1-0.9c-0.3-0.2-0.7-0.4-1.1-0.4c-0.4-0.1-0.8-0.1-1.2,0.1
		c-0.5,0.1-0.9,0.6-0.9,1.1c0,0.5,0.3,0.9,0.8,1.1c-0.3,0.5-0.7,0.9-1.1,1.3c-0.8,0.7-1.6,1.2-2.6,1.6c-2,0.7-4.1,0.9-6.1,0.7
		c-1.1-0.1-2.2-0.4-3.2-0.5c-0.6-0.2-1.2-0.3-1.9-0.5c-0.5-0.2-0.9-0.3-1.4-0.4c-1.2-0.3-2.3-0.6-3.5-0.7c-1.1-0.2-2.2-0.2-3.4-0.3
		h-0.2c-1.1,0-2.2,0.1-3.4,0.3c-1.2,0.2-2.4,0.4-3.5,0.7c-0.5,0.2-1,0.2-1.4,0.4c-0.7,0.2-1.3,0.4-1.9,0.5c-1.1,0.3-2.1,0.4-3.2,0.5
		c-2.1,0.3-4.2,0-6.1-0.7c-0.9-0.4-1.8-0.9-2.6-1.6c-0.4-0.4-0.8-0.8-1.1-1.3c0.5-0.2,0.8-0.6,0.7-1.1c0-0.5-0.4-1-0.9-1.1
		c-0.4-0.1-0.8-0.1-1.2-0.1c-0.4,0.1-0.8,0.2-1.2,0.4c-0.4,0.2-0.7,0.5-0.9,0.9c-0.3,0.4-0.4,0.8-0.5,1.3c-0.1,0.5,0.2,1.1,0.8,1.3
		c0.5,0.2,1,0.1,1.3-0.3c0.5,0.6,1,1.2,1.5,1.8c0.9,0.9,2,1.6,3.3,2.1c1.8,0.7,3.7,1,5.6,1c0.5,0,1.1,0,1.6,0
		c1.2-0.1,2.4-0.3,3.6-0.6c0.7-0.1,1.3-0.3,1.9-0.5c0.5-0.2,0.9-0.2,1.4-0.4c1.2-0.3,2.2-0.5,3.2-0.7c1-0.1,2.1-0.2,3.1-0.2
		c1.1,0,2.1,0.1,3.1,0.2c1.1,0.2,2.2,0.4,3.2,0.7c0.4,0.2,0.9,0.2,1.3,0.4c0.7,0.1,1.3,0.4,1.9,0.5c1.2,0.3,2.4,0.5,3.6,0.6
		c2.5,0.3,5-0.1,7.3-1c1.2-0.5,2.3-1.2,3.3-2.1c0.6-0.5,1.1-1.1,1.5-1.8c0.3,0.4,0.9,0.5,1.3,0.3c0.5-0.2,0.8-0.7,0.7-1.3
		C96.9,79,96.7,78.5,96.4,78.1z"/>
</g>
</svg>
